<!-- Generated by IcoMoon.io -->
<svg version="1.1" xmlns="http://www.w3.org/2000/svg" width="32" height="32" viewBox="0 0 32 32">
<title>facebook</title>
<path fill="#4d5ae5" d="M32 16c0 0.006 0 0.013 0 0.021 0 4.412-1.791 8.405-4.686 11.293l-0 0c-2.888 2.895-6.881 4.686-11.293 4.686-0.007 0-0.015 0-0.022 0h0.001c-0.006 0-0.013 0-0.021 0-4.412 0-8.405-1.791-11.293-4.686l-0-0c-2.895-2.888-4.686-6.881-4.686-11.293 0-0.007 0-0.015 0-0.022v0.001c0-0.006 0-0.013 0-0.020 0-4.412 1.791-8.405 4.686-11.293l0-0c2.888-2.895 6.881-4.686 11.293-4.686 0.007 0 0.014 0 0.021 0h-0.001c0.006 0 0.013 0 0.021 0 4.412 0 8.405 1.791 11.293 4.686l0 0c2.895 2.888 4.686 6.881 4.686 11.293 0 0.007 0 0.015 0 0.022v-0.001z"></path>
<path fill="#f4f4fd" d="M18.132 11.725h1.168v-2.034c-0.495-0.058-1.069-0.091-1.651-0.091-0.018 0-0.036 0-0.054 0h0.003c-1.685 0-2.838 1.060-2.838 3.008v1.792h-1.859v2.275h1.859v5.725h2.279v-5.724h1.784l0.283-2.276h-2.068v-1.567c0.001-0.658 0.178-1.108 1.094-1.108z"></path>
</svg>
