<!-- Generated by IcoMoon.io -->
<svg version="1.1" xmlns="http://www.w3.org/2000/svg" width="32" height="32" viewBox="0 0 32 32">
<title>twitter</title>
<path fill="#4d5ae5" d="M32 16c0 0.006 0 0.013 0 0.021 0 4.412-1.791 8.405-4.686 11.293l-0 0c-2.888 2.895-6.881 4.686-11.293 4.686-0.007 0-0.015 0-0.022 0h0.001c-0.006 0-0.013 0-0.021 0-4.412 0-8.405-1.791-11.293-4.686l-0-0c-2.895-2.888-4.686-6.881-4.686-11.293 0-0.007 0-0.015 0-0.022v0.001c0-0.006 0-0.013 0-0.020 0-4.412 1.791-8.405 4.686-11.293l0-0c2.888-2.895 6.881-4.686 11.293-4.686 0.007 0 0.014 0 0.021 0h-0.001c0.006 0 0.013 0 0.021 0 4.412 0 8.405 1.791 11.293 4.686l0 0c2.895 2.888 4.686 6.881 4.686 11.293 0 0.007 0 0.015 0 0.022v-0.001z"></path>
<path fill="#f4f4fd" d="M22.4 12.031c-0.44 0.197-0.95 0.343-1.485 0.412l-0.027 0.003c0.544-0.327 0.953-0.831 1.149-1.432l0.005-0.018c-0.479 0.289-1.037 0.509-1.63 0.63l-0.034 0.006c-0.48-0.512-1.16-0.83-1.915-0.83-1.449 0-2.624 1.175-2.624 2.624 0 0 0 0.001 0 0.001v-0c0 0.208 0.018 0.408 0.061 0.598-2.187-0.11-4.111-1.151-5.398-2.731l-0.011-0.014c-0.225 0.379-0.358 0.836-0.358 1.324 0 0.906 0.458 1.704 1.155 2.177l0.009 0.006c-0.437-0.012-0.844-0.13-1.199-0.33l0.013 0.007v0.029c0.002 1.266 0.895 2.322 2.085 2.575l0.017 0.003c-0.2 0.055-0.43 0.086-0.668 0.086-0.007 0-0.014-0-0.022-0h0.001c-0.012 0-0.027 0-0.041 0-0.161 0-0.319-0.016-0.471-0.048l0.015 0.003c0.349 1.049 1.309 1.798 2.449 1.828l0.003 0c-0.886 0.698-2.018 1.119-3.248 1.119-0.002 0-0.004 0-0.006 0h0c-0.215 0-0.422-0.010-0.628-0.036 1.13 0.738 2.515 1.178 4.002 1.178 0.008 0 0.017 0 0.025-0h-0.001c4.829 0 7.469-4 7.469-7.467 0-0.116-0.004-0.228-0.010-0.339 0.52-0.375 0.956-0.827 1.303-1.344l0.012-0.019z"></path>
</svg>
